Coordinates
version=1
nRows=14
nColumns=42
inDegrees=yes

Units are S.I. units (second, meters, Newtons, ...)
If the header above contains a line with 'inDegrees', this indicates whether rotational values are in degrees (yes) or radians (no).

endheader
time	pelvis_tilt	pelvis_list	pelvis_rotation	pelvis_tx	pelvis_ty	pelvis_tz	hip_flexion_r	hip_adduction_r	hip_rotation_r	knee_angle_r	knee_adduction_r	knee_angle_r_beta	ankle_angle_r	subtalar_angle_r	mtp_angle_r	hip_flexion_l	hip_adduction_l	hip_rotation_l	knee_angle_l	knee_adduction_l	knee_angle_l_beta	ankle_angle_l	subtalar_angle_l	mtp_angle_l	lumbar_extension	lumbar_bending	lumbar_rotation	arm_flex_r	arm_add_r	arm_rot_r	elbow_flex_r	pro_sup_r	wrist_flex_r	wrist_dev_r	arm_flex_l	arm_add_l	arm_rot_l	elbow_flex_l	pro_sup_l	wrist_flex_l	wrist_dev_l
      0.47000000	     20.15671777	      0.49830110	      1.75965725	     -0.51321664	      0.87845538	     -0.23910657	    -29.52947356	     -0.01250315	    -24.43001798	     30.44267043	     -4.65801063	      0.53132483	     29.69283487	     19.29735105	     -9.36154803	     13.92048388	      0.06023597	     -9.75577215	     27.50031384	     -0.71592942	      0.47997102	      8.17662714	     -6.22295213	     -9.36154803	    -40.09131537	     -1.40605732	      1.05610728	     18.19905995	    -10.04807104	     -4.80940926	     40.37486059	     90.00000001	      0.00000000	      0.00000000	      0.65245789	     -2.14992121	    -35.65357444	     35.96723761	     90.00000001	      0.00000000	      0.00000000
      0.48000000	     19.86292455	      0.54156504	      1.78345633	     -0.50279853	      0.87768020	     -0.24082491	    -29.63147989	     -0.17186819	    -24.31301507	     30.94716566	     -4.91610535	      0.54012993	     29.47429400	     19.32470829	     -9.35735024	     13.87446416	      0.30192354	     -9.55267300	     28.04912373	     -0.72739194	      0.48954956	      7.97148403	     -6.16781315	     -9.35735024	    -39.59971059	     -1.49202436	      1.05333917	     17.68361817	     -9.98193393	     -4.82337153	     40.18979918	     90.00000001	      0.00000000	      0.00000000	      0.47989352	     -2.05603912	    -35.66510660	     35.88528547	     90.00000001	      0.00000000	      0.00000000
      0.49000000	     19.56773304	      0.68006339	      1.88234579	     -0.49235183	      0.87685624	     -0.24273591	    -29.66228323	     -0.66610805	    -24.76806426	     31.78598003	     -4.92577140	      0.55477001	     28.01503567	     19.36292313	     -9.32730468	     14.18978554	      0.54695131	    -10.03082670	     29.31395572	     -0.95291746	      0.51162504	      7.03476612	     -6.17357740	     -9.32730468	    -39.10058390	     -1.62028009	      1.07567479	     17.23639723	     -9.98187414	     -5.00373532	     39.97317107	     90.00000001	      0.00000000	      0.00000000	      0.58161771	     -2.09227450	    -35.62555596	     35.63675837	     90.00000001	      0.00000000	      0.00000000
      0.50000000	     19.28564165	      0.84316770	      1.95874092	     -0.48182223	      0.87630515	     -0.24461030	    -29.68489344	     -1.08411183	    -24.83960300	     32.59253870	     -4.98072804	      0.56884711	     27.12706877	     19.35549922	     -9.30902671	     14.30416017	      0.88636665	    -10.00725769	     30.19760011	     -1.03526918	      0.52704755	      6.68903659	     -6.07411048	     -9.30902671	    -38.60880351	     -1.79880614	      1.10191910	     16.68193740	     -9.94376268	     -5.16139603	     39.74789923	     90.00000001	      0.00000000	      0.00000000	      0.60066235	     -2.07119968	    -35.59993340	     35.46225122	     90.00000001	      0.00000000	      0.00000000
      0.51000000	     19.06377518	      1.08043005	      2.06010909	     -0.47130482	      0.87597570	     -0.24652882	    -29.71632678	     -1.53674854	    -24.82147676	     33.47105492	     -5.05539365	      0.58418011	     26.19237775	     19.30882200	     -9.29732175	     14.36698565	      1.30639764	     -9.88652485	     31.12126629	     -1.08033339	      0.54316856	      6.48218035	     -6.02337523	     -9.29732175	    -38.20524730	     -2.04455645	      1.10989606	     16.09254209	     -9.91018841	     -5.30338736	     39.50951538	     90.00000001	      0.00000000	      0.00000000	      0.65815854	     -2.09757857	    -35.57946025	     35.34709212	     90.00000001	      0.00000000	      0.00000000
      0.52000000	     18.89847806	      1.34131921	      2.09962771	     -0.46071715	      0.87591916	     -0.24847557	    -29.72932378	     -2.08937341	    -24.80095825	     34.47883433	     -5.12781161	      0.60176918	     24.78665206	     19.13990787	     -9.28348381	     14.35166717	      1.75052470	     -9.79088605	     32.05539634	     -1.13928911	      0.55947221	      6.39099776	     -6.08054097	     -9.28348381	    -37.84800047	     -2.31994930	      1.07401836	     15.46516017	     -9.85145856	     -5.51101802	     39.25675454	     90.00000001	      0.00000000	      0.00000000	      0.73055957	     -2.10719431	    -35.54207857	     35.19114626	     90.00000001	      0.00000000	      0.00000000
      0.53000000	     18.79957849	      1.61856486	      2.12317878	     -0.45012023	      0.87622411	     -0.25034638	    -29.73568677	     -2.54600003	    -24.53578544	     35.50117949	     -5.31349279	      0.61961247	     22.25942210	     18.17264878	     -9.24144542	     14.16072211	      2.25797312	     -9.47876214	     32.81498019	     -1.17621899	      0.57272945	      6.43179472	     -6.47517747	     -9.24144542	    -37.57191485	     -2.64178260	      1.10111726	     14.85615806	     -9.63716324	     -6.14572604	     38.98940906	     90.00000001	      0.00000000	      0.00000000	      0.84675662	     -2.18296044	    -35.44049063	     34.81734548	     90.00000001	      0.00000000	      0.00000000
      0.54000000	     18.74180492	      1.92475163	      2.22806783	     -0.43969682	      0.87674279	     -0.25229237	    -29.74650084	     -3.01368905	    -23.75014319	     36.68878727	     -5.06438267	      0.64034014	     20.13092195	     16.13674465	     -9.15709558	     13.87951398	      2.79836990	     -8.36853361	     33.57568729	     -0.74484990	      0.58600629	      6.43759783	     -7.64340288	     -9.15709558	    -37.38227855	     -2.95721575	      1.11200889	     14.27265364	     -9.37590344	     -7.23327521	     38.65580407	     90.00000001	      0.00000000	      0.00000000	      1.04660600	     -2.24599534	    -35.27379682	     34.54433666	     90.00000001	      0.00000000	      0.00000000
      0.55000000	     18.78502989	      2.31420830	      2.27893693	     -0.42934066	      0.87753828	     -0.25429223	    -29.74313848	     -3.63001797	    -23.02030231	     38.06764334	     -4.82912134	      0.66440571	     17.92888073	     14.41392158	     -9.05880510	     13.38000892	      3.46651186	     -7.15878796	     34.16666022	     -0.28222477	      0.59632072	      6.57959242	     -9.13147856	     -9.05880510	    -37.31204973	     -3.35519370	      1.07281327	     13.70328557	     -9.15220909	     -8.02343748	     38.31140177	     90.00000001	      0.00000000	      0.00000000	      1.16406106	     -2.31785944	    -35.12463867	     34.51890077	     90.00000001	      0.00000000	      0.00000000
      0.56000000	     18.93879913	      2.78486499	      2.30592838	     -0.41895994	      0.87851843	     -0.25630993	    -29.73262037	     -4.42847116	    -22.75747213	     39.64026086	     -4.77514635	      0.69185307	     15.97884324	     13.97719069	     -9.03881906	     12.71742501	      4.16505692	     -6.41552935	     34.70789821	      0.05608613	      0.60576710	      7.21606057	     -9.60745166	     -9.03881906	    -37.36834370	     -3.83877413	      1.00744487	     13.05603877	     -9.07488892	     -8.18970331	     38.03187027	     90.00000001	      0.00000000	      0.00000000	      1.29076126	     -2.36454321	    -35.07772267	     34.54730919	     90.00000001	      0.00000000	      0.00000000
      0.57000000	     19.16394515	      3.14696011	      2.38270676	     -0.40896161	      0.87993189	     -0.25829066	    -29.72322706	     -4.91430269	    -21.45186012	     41.22891993	     -4.30049064	      0.71958040	     12.87961273	     10.45216479	     -8.93738340	     11.81945014	      4.79303610	     -4.80212445	     34.97159208	      0.77640566	      0.61036943	      7.28615205	    -11.62480898	     -8.93738340	    -37.55638346	     -4.17137929	      0.91861256	     12.53971111	     -8.81864452	     -9.00013114	     37.70620591	     90.00000001	      0.00000000	      0.00000000	      1.46234119	     -2.47199779	    -34.78656544	     34.63700422	     90.00000001	      0.00000000	      0.00000000
      0.58000000	     19.49256245	      3.57291032	      2.44049952	     -0.39898605	      0.88147222	     -0.26031987	    -29.69832134	     -5.53127581	    -20.56930439	     42.96693996	     -3.99753342	      0.74991457	     10.12417030	      8.13373121	     -8.83784407	     10.77342537	      5.42979350	     -3.93364724	     35.16934557	      1.19778712	      0.61382088	      7.83978262	    -12.40263657	     -8.83784407	    -37.85967378	     -4.55057769	      0.79758992	     12.00654513	     -8.63458835	     -9.53855470	     37.40783471	     90.00000001	      0.00000000	      0.00000000	      1.63545600	     -2.54927713	    -34.50672667	     34.79246941	     90.00000001	      0.00000000	      0.00000000
      0.59000000	     19.94123787	      3.99653450	      2.48889403	     -0.38915514	      0.88303599	     -0.26228510	    -29.65031443	     -6.25300234	    -20.32643719	     44.90271374	     -3.98022654	      0.78370020	      8.47979795	      7.80409722	     -8.82747177	      9.61585575	      5.94167337	     -3.68146905	     35.39367508	      1.47131921	      0.61773616	      8.44515831	    -12.51850002	     -8.82747177	    -38.29169603	     -4.92449169	      0.63451668	     11.43046997	     -8.56730412	     -9.62409948	     37.15941562	     90.00000001	      0.00000000	      0.00000000	      1.90239401	     -2.62302501	    -34.44916649	     34.90345193	     90.00000001	      0.00000000	      0.00000000
      0.60000000	     20.42029408	      4.35523902	      2.58488625	     -0.37954830	      0.88499048	     -0.26419266	    -29.57943209	     -6.69046578	    -18.85685075	     46.80264505	     -3.27639634	      0.81686025	      4.48560318	      3.06837287	     -8.74899149	      8.23335931	      6.48751356	     -3.36058152	     35.20149203	      1.53937360	      0.61438194	      9.35987440	    -12.54023348	     -8.74899149	    -38.79978636	     -5.21354389	      0.52079822	     10.91559752	     -8.31595618	    -10.19688311	     36.91547904	     90.00000001	      0.00000000	      0.00000000	      2.00659442	     -2.75981300	    -34.04566297	     35.32820411	     90.00000001	      0.00000000	      0.00000000
